<?xml version="1.0" encoding="UTF-8"?>
<svg xmlns="http://www.w3.org/2000/svg" xmlns:xlink="http://www.w3.org/1999/xlink" viewBox="0 0 48 48" version="1.1" width="480px" height="480px">
<g id="surface1">
<path style=" fill:#8BC34A;" d="M 39 15 C 39 12.800781 37.199219 11 35 11 L 29 11 C 28.300781 11 27.898438 10.199219 28.300781 9.601563 C 28.898438 8.601563 29.199219 7.398438 28.898438 6.101563 C 28.5 4.101563 27 2.5 25.101563 2.101563 C 21.800781 1.398438 19 3.898438 19 7 C 19 8 19.300781 8.800781 19.699219 9.601563 C 20.101563 10.199219 19.699219 11 18.898438 11 L 12.898438 11 C 10.699219 11 8.898438 12.800781 8.898438 15 L 8.898438 22 C 8.898438 22.699219 9.699219 23.101563 10.300781 22.699219 C 11.300781 22.101563 12.5 21.800781 13.800781 22.101563 C 15.800781 22.5 17.398438 24 17.800781 25.898438 C 18.5 29.101563 16 32 12.898438 32 C 11.898438 32 11.101563 31.699219 10.300781 31.300781 C 9.800781 30.898438 9 31.300781 9 32 L 9 38 C 9 40.199219 10.800781 42 13 42 L 35 42 C 37.199219 42 39 40.199219 39 38 Z "/>
</g>
</svg>
