<?xml version="1.0" encoding="iso-8859-1"?>
<!-- Generator: Adobe Illustrator 22.1.0, SVG Export Plug-In . SVG Version: 6.00 Build 0)  -->
<svg xmlns="http://www.w3.org/2000/svg" xmlns:xlink="http://www.w3.org/1999/xlink" version="1.1" id="Layer_1" x="0px" y="0px" viewBox="0 0 48 48" style="enable-background:new 0 0 48 48;" xml:space="preserve" width="480px" height="480px">
<path style="fill:#64B5F6;" d="M31,14h13v-4c0-2.209-1.791-4-4-4h-9V14z"/>
<path style="fill:#BBDEFB;" d="M40,6H14c-2.209,0-4,1.791-4,4v28c0,2.209,1.791,4,4,4h18c2.209,0,4-1.791,4-4V10  C36,7.791,37.791,6,40,6z"/>
<path style="fill:#64B5F6;" d="M32,42H8c-2.209,0-4-1.791-4-4v-3h24v3C28,40.209,29.791,42,32,42z"/>
<g>
	<rect x="16" y="14" style="fill:#64B5F6;" width="14" height="2"/>
	<rect x="16" y="19" style="fill:#64B5F6;" width="10" height="2"/>
	<rect x="16" y="24" style="fill:#64B5F6;" width="14" height="2"/>
	<rect x="16" y="29" style="fill:#64B5F6;" width="10" height="2"/>
</g>
</svg>
