<?xml version="1.0" standalone="no"?><!DOCTYPE svg PUBLIC "-//W3C//DTD SVG 1.1//EN" "http://www.w3.org/Graphics/SVG/1.1/DTD/svg11.dtd"><svg class="icon" height="512" viewBox="0 0 1024 1024" version="1.1" xmlns="http://www.w3.org/2000/svg"><path d="M983.85857 0H39.354343a39.354343 39.354343 0 0 0 0 78.708686h944.504227a39.354343 39.354343 0 0 0 0-78.708686z" fill="#999999" /><path d="M983.85857 0a39.354343 39.354343 0 0 0-39.354342 39.354343v314.834742a39.354343 39.354343 0 0 0 78.708685 0v-314.834742a39.354343 39.354343 0 0 0-39.354343-39.354343zM39.354343 0a39.354343 39.354343 0 0 0-39.354343 39.354343v314.834742a39.354343 39.354343 0 0 0 78.708686 0v-314.834742A39.354343 39.354343 0 0 0 39.354343 0z" fill="#999999" /><path d="M944.504228 315.543121v629.669485H78.708686v-629.669485h865.795542m0-78.708686H78.708686a78.708686 78.708686 0 0 0-78.708686 78.708686v629.669485a78.708686 78.708686 0 0 0 78.708686 78.708685h865.795542a78.708686 78.708686 0 0 0 78.708685-78.708685v-629.669485a78.708686 78.708686 0 0 0-78.708685-78.708686z" fill="#999999" /><path d="M308.065796 465.561875a39.51176 39.51176 0 0 0-27.862875 11.491469L168.908839 588.426134a39.354343 39.354343 0 0 0 55.72575 55.725749L335.92867 532.857802a39.354343 39.354343 0 0 0-27.862874-67.295927z" fill="#999999" /><path d="M196.771714 575.439201a39.354343 39.354343 0 0 0-27.862875 67.138508L280.202921 753.871791a39.196925 39.196925 0 0 0 55.725749 0 39.354343 39.354343 0 0 0 0-55.647041L224.634589 587.009377a39.354343 39.354343 0 0 0-27.862875-11.570176zM622.979247 454.700077a39.275634 39.275634 0 0 0-34.080861 19.677171l-157.417371 272.646887a39.354343 39.354343 0 0 0 68.161721 39.354343l157.417372-272.646887a39.354343 39.354343 0 0 0-34.080861-59.031514zM826.441199 590.315142a39.51176 39.51176 0 0 0-27.862875 11.491468L687.284243 713.1794a39.354343 39.354343 0 0 0 55.725749 55.647041l111.294082-111.294081A39.354343 39.354343 0 0 0 826.441199 590.315142z" fill="#999999" /><path d="M715.147118 480.437817a39.354343 39.354343 0 0 0-27.862875 67.138509l111.294081 111.294081a39.196925 39.196925 0 0 0 55.72575 0 39.354343 39.354343 0 0 0 0-55.64704L742.931284 492.007994a38.960799 38.960799 0 0 0-27.784166-11.570177z" fill="#999999" /></svg>